{
    "asset": {
        "version": "2.0",
        "generator": "Open Asset Import Library (assimp v5.2.cf7d3637)"
    },
    "extensionsUsed": [
        "KHR_materials_volume",
        "FB_ngon_encoding"
    ],
    "accessors": [
        {
            "bufferView": 0,
            "byteOffset": 0,
            "componentType": 5126,
            "count": 1499982,
            "type": "VEC3",
            "max": [
                0.2616834044456482,
                0.5,
                0.4064767360687256
            ],
            "min": [
                -0.2616639733314514,
                -0.5,
                -0.4065001308917999
            ]
        },
        {
            "bufferView": 1,
            "byteOffset": 0,
            "componentType": 5126,
            "count": 1499982,
            "type": "VEC3",
            "max": [
                0.9999690055847168,
                1.0,
                1.0
            ],
            "min": [
                -1.0,
                -1.0,
                -1.0
            ]
        },
        {
            "bufferView": 2,
            "byteOffset": 0,
            "componentType": 5126,
            "count": 1499982,
            "type": "VEC2",
            "max": [
                0.9999992251396179,
                0.9999893307685852
            ],
            "min": [
                0.000009056180715560913,
                0.009343326091766358
            ]
        },
        {
            "bufferView": 3,
            "byteOffset": 0,
            "componentType": 5125,
            "count": 1499982,
            "type": "SCALAR",
            "max": [
                1499981
            ],
            "min": [
                0
            ]
        }
    ],
    "buffers": [
        {
            "byteLength": 53999352,
            "uri": "result.bin"
        }
    ],
    "bufferViews": [
        {
            "buffer": 0,
            "byteOffset": 0,
            "byteLength": 17999784,
            "target": 34962
        },
        {
            "buffer": 0,
            "byteOffset": 17999784,
            "byteLength": 17999784,
            "target": 34962
        },
        {
            "buffer": 0,
            "byteOffset": 35999568,
            "byteLength": 11999856,
            "target": 34962
        },
        {
            "buffer": 0,
            "byteOffset": 47999424,
            "byteLength": 5999928,
            "target": 34963
        }
    ],
    "images": [
        {
            "uri": "data:image/jpeg;base64,"
        },
        {
            "uri": "data:image/jpeg;base64,"
        },
        {
            "uri": "data:image/jpeg;base64,"
        }
    ],
    "materials": [
        {
            "name": "tripo_material_bbbb12a1-bffa-4549-8575-7c8b26d11335",
            "pbrMetallicRoughness": {
                "baseColorTexture": {
                    "index": 0
                },
                "metallicRoughnessTexture": {
                    "index": 1
                }
            },
            "normalTexture": {
                "index": 2
            }
        },
        {
            "name": "material"
        }
    ],
    "meshes": [
        {
            "name": "meshes[0]",
            "primitives": [
                {
                    "mode": 4,
                    "material": 0,
                    "indices": 3,
                    "attributes": {
                        "POSITION": 0,
                        "NORMAL": 1,
                        "TEXCOORD_0": 2
                    }
                }
            ]
        }
    ],
    "nodes": [
        {
            "name": "tripo_node_bbbb12a1-bffa-4549-8575-7c8b26d11335",
            "mesh": 0
        }
    ],
    "samplers": [
        {
            "magFilter": 9729,
            "minFilter": 9987
        },
        {
            "magFilter": 9729,
            "minFilter": 9987
        },
        {
            "magFilter": 9729,
            "minFilter": 9987
        }
    ],
    "scenes": [
        {
            "nodes": [
                0
            ]
        }
    ],
    "textures": [
        {
            "source": 0,
            "sampler": 0
        },
        {
            "source": 1,
            "sampler": 1
        },
        {
            "source": 2,
            "sampler": 2
        }
    ],
    "scene": 0
}